<?xml version="1.0" encoding="UTF-8"?>
<svg width="320px" height="55px" viewBox="0 0 320 55" version="1.1" xmlns="http://www.w3.org/2000/svg" xmlns:xlink="http://www.w3.org/1999/xlink">
    <!-- Generator: Sketch 53 (72520) - https://sketchapp.com -->
    <title>分组 35</title>
    <desc>Created with Sketch.</desc>
    <g id="-优化" stroke="none" stroke-width="1" fill="none" fill-rule="evenodd">
        <g id="1.普通用户-基础设置" transform="translate(-225.000000, -130.000000)">
            <g id="中间展示区" transform="translate(88.000000, 55.000000)">
                <polygon id="Rectangle_12415" fill="#F2F2F2" fill-rule="nonzero" points="0 0 593 0 593 680 0 680"></polygon>
                <g id="分组-35" transform="translate(137.000000, 75.000000)">
                    <rect id="Rectangle-3" fill="#FAFAFA" fill-rule="nonzero" x="0" y="1.7408297e-13" width="320" height="54.6133333"></rect>
                    <rect id="Rectangle-3" fill-rule="nonzero" x="0" y="-3.01980663e-14" width="320" height="17.0666667"></rect>
                    <path d="M291.84,37.12 C290.897434,37.12 290.133333,36.3558993 290.133333,35.4133333 C290.133333,34.4707674 290.897434,33.7066667 291.84,33.7066667 C292.782566,33.7066667 293.546667,34.4707674 293.546667,35.4133333 C293.546667,36.3558993 292.782566,37.12 291.84,37.12 Z M298.666667,37.12 C297.724101,37.12 296.96,36.3558993 296.96,35.4133333 C296.96,34.4707674 297.724101,33.7066667 298.666667,33.7066667 C299.609233,33.7066667 300.373333,34.4707674 300.373333,35.4133333 C300.373333,36.3558993 299.609233,37.12 298.666667,37.12 Z M305.493333,37.12 C304.550767,37.12 303.786667,36.3558993 303.786667,35.4133333 C303.786667,34.4707674 304.550767,33.7066667 305.493333,33.7066667 C306.435899,33.7066667 307.2,34.4707674 307.2,35.4133333 C307.2,36.3558993 306.435899,37.12 305.493333,37.12 Z" id="合并形状" fill="#000000"></path>
                    <g id="Bars/Status/Black" transform="translate(5.546667, 1.706667)">
                        <g id="Pin-Right" transform="translate(258.133333, 0.426667)" fill="#030303">
                            <path d="M32.0095795,2.13333333 L48.6304205,2.13333333 C49.3453821,2.13333333 49.92,2.70843496 49.92,3.41785877 L49.92,8.95547457 C49.92,9.65698853 49.3426356,10.24 48.6304205,10.24 L32.0095795,10.24 C31.2946179,10.24 30.72,9.66489837 30.72,8.95547457 L30.72,3.41785877 C30.72,2.71634481 31.2973644,2.13333333 32.0095795,2.13333333 Z M50.3466667,4.69333333 L50.9866667,4.69333333 C51.3425932,4.69333333 51.6266667,4.97691402 51.6266667,5.32672852 L51.6266667,7.04660482 C51.6266667,7.39362584 51.3401289,7.68 50.9866667,7.68 L50.3466667,7.68 L50.3466667,4.69333333 Z M32.0069567,2.56 C31.5318316,2.56 31.1466667,2.9499707 31.1466667,3.42053594 L31.1466667,8.95279739 C31.1466667,9.42805827 31.5298629,9.81333333 32.0069567,9.81333333 L48.6330433,9.81333333 C49.1081684,9.81333333 49.4933333,9.42336263 49.4933333,8.95279739 L49.4933333,3.42053594 C49.4933333,2.94527506 49.1101371,2.56 48.6330433,2.56 L32.0069567,2.56 Z M32.0057552,2.98666667 L48.6342448,2.98666667 C48.8702083,2.98666667 49.0666667,3.17467209 49.0666667,3.40658854 L49.0666667,8.96674479 C49.0666667,9.20202922 48.8730648,9.38666667 48.6342448,9.38666667 L32.0057552,9.38666667 C31.7697917,9.38666667 31.5733333,9.19866124 31.5733333,8.96674479 L31.5733333,3.40658854 C31.5733333,3.17130412 31.7669352,2.98666667 32.0057552,2.98666667 Z" id="Battery"></path>
                            <text id="100%" font-family=".SFNSDisplay, .SF NS Display" font-size="10.24" font-weight="normal">
                                <tspan x="3" y="10.4266667">100%</tspan>
                            </text>
                        </g>
                        <text id="Time" font-family=".SFNSDisplay, .SF NS Display" font-size="10.24" font-weight="normal" fill="#030303">
                            <tspan x="136.401667" y="10.8533333">9:41 AM</tspan>
                        </text>
                        <g id="Signal">
                            <path d="M84.0533333,8.92556617 L82.15148,10.6666667 L80.2133333,8.89753738 C80.6773453,8.41284611 81.359566,8.10666667 82.1201308,8.10666667 C82.8952541,8.10666667 83.5890053,8.4246799 84.0533333,8.92556617 Z M85.3333333,7.17115411 L84.4196631,8.10666667 C83.7492332,7.34518211 82.7769337,6.8662766 81.6950703,6.8662766 C80.6261338,6.8662766 79.6641583,7.33380599 78.9946386,8.07949202 L78.08,7.14573087 C78.9840053,6.16153834 80.2692028,5.54666667 81.6950703,5.54666667 C83.133176,5.54666667 84.4281865,6.17213844 85.3333333,7.17115411 Z M87.4666667,5.44133632 L86.5381289,6.4 C85.3793117,5.13178819 83.7341889,4.3398584 81.9093871,4.3398584 C80.0963346,4.3398584 78.4606548,5.12162308 77.3030894,6.37556256 L76.3733333,5.41845254 C77.7690023,3.91975118 79.7333421,2.98666667 81.9093871,2.98666667 C84.0964863,2.98666667 86.069724,3.92925533 87.4666667,5.44133632 Z" id="Wi-Fi" fill="#030303"></path>
                            <text id="Carrier" font-family="PingFangSC-Medium, PingFang SC" font-size="10.24" font-weight="400" fill="#000000">
                                <tspan x="32" y="11">中国移动</tspan>
                            </text>
                            <path d="M2.34666667,9.38666667 C1.05063845,9.38666667 0,8.33602821 0,7.04 C0,5.74397179 1.05063845,4.69333333 2.34666667,4.69333333 C3.64269488,4.69333333 4.69333333,5.74397179 4.69333333,7.04 C4.69333333,8.33602821 3.64269488,9.38666667 2.34666667,9.38666667 Z M8.32,9.38666667 C7.02397179,9.38666667 5.97333333,8.33602821 5.97333333,7.04 C5.97333333,5.74397179 7.02397179,4.69333333 8.32,4.69333333 C9.61602821,4.69333333 10.6666667,5.74397179 10.6666667,7.04 C10.6666667,8.33602821 9.61602821,9.38666667 8.32,9.38666667 Z M14.2933333,9.38666667 C12.9973051,9.38666667 11.9466667,8.33602821 11.9466667,7.04 C11.9466667,5.74397179 12.9973051,4.69333333 14.2933333,4.69333333 C15.5893615,4.69333333 16.64,5.74397179 16.64,7.04 C16.64,8.33602821 15.5893615,9.38666667 14.2933333,9.38666667 Z M20.2666667,9.38666667 C18.9706385,9.38666667 17.92,8.33602821 17.92,7.04 C17.92,5.74397179 18.9706385,4.69333333 20.2666667,4.69333333 C21.5626949,4.69333333 22.6133333,5.74397179 22.6133333,7.04 C22.6133333,8.33602821 21.5626949,9.38666667 20.2666667,9.38666667 Z M26.24,9.38666667 C24.9439718,9.38666667 23.8933333,8.33602821 23.8933333,7.04 C23.8933333,5.74397179 24.9439718,4.69333333 26.24,4.69333333 C27.5360282,4.69333333 28.5866667,5.74397179 28.5866667,7.04 C28.5866667,8.33602821 27.5360282,9.38666667 26.24,9.38666667 Z" id="Mobile-Signal" fill="#030303"></path>
                        </g>
                    </g>
                    <path d="M21.3939779,34.2671823 L26.3461279,29.3150322 C26.5127516,29.1484085 26.782902,29.1484085 26.9495257,29.3150322 L27.5529235,29.91843 C27.7195472,30.0850537 27.7195472,30.3552041 27.5529235,30.5218278 L22.6007734,35.4739779 L27.9795902,40.8527946 C28.1462139,41.0194183 28.1462139,41.2895687 27.9795902,41.4561924 L27.3761924,42.0595902 C27.2095687,42.2262139 26.9394183,42.2262139 26.7727946,42.0595902 L21.3939779,36.6807734 L16.0151611,42.0595902 C15.8485374,42.2262139 15.578387,42.2262139 15.4117633,42.0595902 L14.8083656,41.4561924 C14.6417419,41.2895687 14.6417419,41.0194183 14.8083656,40.8527946 L20.1871823,35.4739779 L15.2350322,30.5218278 C15.0684085,30.3552041 15.0684085,30.0850537 15.2350322,29.91843 L15.83843,29.3150322 C16.0050537,29.1484085 16.2752041,29.1484085 16.4418278,29.3150322 L21.3939779,34.2671823 Z" id="合并形状" fill="#000000"></path>
                </g>
            </g>
        </g>
    </g>
</svg>